<svg width="577" height="103" viewBox="0 0 577 103" fill="none" xmlns="http://www.w3.org/2000/svg">
<path d="M29.3559 81.8C26.8225 81.8 23.8559 81.7 20.4559 81.5C12.6559 81.1667 6.85586 81 3.05586 81C1.58919 79.2 0.855859 77.1 0.855859 74.7C3.12253 74.7 4.72253 74.3333 5.65586 73.6C6.58919 72.8 7.05586 71.4667 7.05586 69.6V22.6C7.05586 20.7333 6.58919 19.4333 5.65586 18.7C4.72253 17.9 3.12253 17.5 0.855859 17.5C0.855859 15.1 1.58919 13 3.05586 11.2C6.78919 11.2 12.5559 11.1 20.3559 10.9C23.8225 10.7667 26.1892 10.7 27.4559 10.7C37.9225 10.7 45.3225 12.3333 49.6559 15.6C53.9892 18.8667 56.1559 22.8333 56.1559 27.5C56.1559 31.3667 55.1559 34.6333 53.1559 37.3C51.2225 39.9 47.9892 42.1333 43.4559 44C49.3892 45.2 53.6225 47.1 56.1559 49.7C58.6892 52.3 59.9559 56.2 59.9559 61.4C59.9559 75 49.7559 81.8 29.3559 81.8ZM26.5559 41.6C35.4892 41.6 39.9559 37.6667 39.9559 29.8C39.9559 26.0667 38.9225 23.1667 36.8559 21.1C34.8559 19.0333 31.7892 18 27.6559 18C25.7892 18 24.4225 18.1333 23.5559 18.4V41.4C24.7559 41.5333 25.7559 41.6 26.5559 41.6ZM27.7559 74.5C37.0892 74.5 41.7559 70.4667 41.7559 62.4C41.7559 57.8 40.5892 54.4 38.2559 52.2C35.9225 49.9333 32.1225 48.8 26.8559 48.8L23.5559 48.9V74.2C25.3559 74.4 26.7559 74.5 27.7559 74.5ZM115.737 14.8C108.004 24.6 102.804 33.9 100.137 42.7C97.5371 51.5 96.2371 60.3 96.2371 69.1V74.7C96.2371 76.8333 95.4371 78.6 93.8371 80C92.2371 81.3333 89.1371 82 84.5371 82C81.2038 82 78.4371 81.5 76.2371 80.5C76.9038 70.4333 79.2704 60.8 83.3371 51.6C87.4704 42.4 93.9038 32.4667 102.637 21.8C97.0371 23.4667 91.2704 24.3 85.3371 24.3C81.4704 24.3 78.6704 24.8667 76.9371 26C75.2704 27.1333 74.0704 29.2 73.3371 32.2H67.7371C66.5371 31.0667 65.5371 29.6333 64.7371 27.9C63.9371 26.1 63.5371 24 63.5371 21.6C63.5371 18.0667 64.5704 15.3 66.6371 13.3C68.7038 11.2333 71.9038 10.2 76.2371 10.2C77.5038 10.2 79.3371 10.4 81.7371 10.8C84.2038 11.1333 85.7704 11.3333 86.4371 11.4C94.1038 12.5333 99.6038 13.1 102.937 13.1C105.137 13.1 106.737 12.9333 107.737 12.6C108.737 12.2 110.204 11.3 112.137 9.9L115.737 14.8ZM169.879 47.7C169.879 52.3667 168.446 56.1333 165.579 59C162.713 61.8 158.913 63.2 154.179 63.2C149.379 63.2 145.546 61.8 142.679 59C139.879 56.1333 138.479 52.3667 138.479 47.7C138.479 43.0333 139.879 39.3 142.679 36.5C145.546 33.7 149.379 32.3 154.179 32.3C158.913 32.3 162.713 33.7 165.579 36.5C168.446 39.3 169.879 43.0333 169.879 47.7ZM221.792 82.1C220.258 82.1 218.392 82 216.192 81.8C209.058 81.2667 202.792 81 197.392 81C195.925 79.1333 195.192 77 195.192 74.6C197.392 74.6 198.958 74.2333 199.892 73.5C200.892 72.7 201.392 71.3667 201.392 69.5V22.5C201.392 20.7 200.892 19.4333 199.892 18.7C198.958 17.9 197.392 17.5 195.192 17.5C195.192 14.9667 195.925 12.8667 197.392 11.2C202.458 11.2 207.025 11.0667 211.092 10.8C215.158 10.5333 217.558 10.3667 218.292 10.3C220.558 10.1 222.192 10 223.192 10C230.592 10 236.792 11.5333 241.792 14.6C246.858 17.6667 250.592 21.8333 252.992 27.1C255.458 32.3 256.692 38.1333 256.692 44.6C256.692 51.7333 255.425 58.1333 252.892 63.8C250.425 69.4 246.592 73.8667 241.392 77.2C236.192 80.4667 229.658 82.1 221.792 82.1ZM220.992 73.8C226.725 73.8 231.125 71.6333 234.192 67.3C237.325 62.9 238.892 55.8333 238.892 46.1C238.892 36.7 237.225 29.6667 233.892 25C230.625 20.3333 226.058 18 220.192 18C219.058 18 218.258 18.0667 217.792 18.2V73.6C218.458 73.7333 219.525 73.8 220.992 73.8ZM291.389 70.8C295.589 70.8 299.489 69.4667 303.089 66.8C303.622 67.3333 304.089 68.1333 304.489 69.2C304.889 70.2667 305.089 71.2 305.089 72C305.089 73.2 304.289 74.6 302.689 76.2C301.089 77.7333 298.855 79.0667 295.989 80.2C293.189 81.3333 290.022 81.9 286.489 81.9C281.555 81.9 277.222 80.8333 273.489 78.7C269.822 76.5667 266.989 73.4667 264.989 69.4C262.989 65.3333 261.989 60.5333 261.989 55C261.989 49.3333 263.055 44.3667 265.189 40.1C267.389 35.8333 270.389 32.5667 274.189 30.3C277.989 27.9667 282.289 26.8 287.089 26.8C293.155 26.8 297.989 28.5667 301.589 32.1C305.189 35.6333 306.989 40.5333 306.989 46.8C306.989 49.7333 306.522 52.0667 305.589 53.8C304.655 55.4667 302.989 56.3 300.589 56.3H278.989C279.389 65.9667 283.522 70.8 291.389 70.8ZM286.489 33.7C284.422 33.7 282.689 34.8667 281.289 37.2C279.889 39.4667 279.122 43.3 278.989 48.7H289.089C290.155 48.7 290.855 48.3333 291.189 47.6C291.522 46.8667 291.689 45.7333 291.689 44.2C291.689 40.2667 291.222 37.5333 290.289 36C289.355 34.4667 288.089 33.7 286.489 33.7ZM317.984 17C317.984 15.3333 317.484 14.1 316.484 13.3C315.551 12.4333 313.784 12 311.184 12V8C313.584 6.66666 316.617 5.53333 320.284 4.59999C323.951 3.66666 326.917 3.19999 329.184 3.19999C330.784 3.19999 331.917 3.53333 332.584 4.2C333.251 4.86667 333.584 6.03333 333.584 7.7V70.1C333.584 72.1667 333.984 73.6 334.784 74.4C335.651 75.2 337.084 75.6 339.084 75.6C339.084 77.4667 338.284 79.2667 336.684 81H314.784C313.251 79.3333 312.484 77.5333 312.484 75.6C314.417 75.6 315.817 75.2 316.684 74.4C317.551 73.5333 317.984 72.1 317.984 70.1V17ZM367.118 10.3C367.118 13.1667 366.218 15.4667 364.418 17.2C362.684 18.8667 360.351 19.7 357.418 19.7C354.551 19.7 352.251 18.8667 350.518 17.2C348.851 15.4667 348.018 13.1667 348.018 10.3C348.018 7.5 348.884 5.23333 350.618 3.5C352.418 1.76666 354.751 0.899994 357.618 0.899994C360.484 0.899994 362.784 1.76666 364.518 3.5C366.251 5.23333 367.118 7.5 367.118 10.3ZM365.218 70.2C365.218 72.1333 365.684 73.5333 366.618 74.4C367.618 75.2 369.118 75.6 371.118 75.6C371.118 77.6667 370.351 79.4667 368.818 81H346.218C344.684 79.4667 343.918 77.6667 343.918 75.6C345.918 75.6 347.351 75.2 348.218 74.4C349.151 73.5333 349.618 72.1 349.618 70.1V41.1C349.618 39.2333 349.151 37.9 348.218 37.1C347.351 36.3 345.618 35.9 343.018 35.9V31.5C344.618 30.5 347.318 29.4667 351.118 28.4C354.984 27.2667 358.251 26.7 360.918 26.7C362.451 26.7 363.551 27.0667 364.218 27.8C364.884 28.4667 365.218 29.6333 365.218 31.3V70.2ZM396.77 54.1L401.37 71.6L405.97 54.1L409.87 40.5C410.137 39.4333 410.27 38.6333 410.27 38.1C410.27 36.7 409.803 35.6667 408.87 35C408.003 34.2667 406.737 33.9 405.07 33.9C405.07 31.1667 405.703 29.1667 406.97 27.9H426.37C427.703 29.2333 428.37 31.2333 428.37 33.9C426.703 33.9 425.437 34.3 424.57 35.1C423.703 35.9 422.97 37.2333 422.37 39.1L411.97 71C410.837 74.9333 409.57 77.7 408.17 79.3C406.77 80.9 404.637 81.7 401.77 81.7H391.37L375.57 39.1C374.837 37.1667 374.103 35.8333 373.37 35.1C372.637 34.3 371.437 33.9 369.77 33.9C369.77 31.3 370.47 29.3 371.87 27.9H394.67C395.403 28.6333 395.97 29.5667 396.37 30.7C396.77 31.7667 396.97 32.8333 396.97 33.9C395.57 33.9 394.437 34.3 393.57 35.1C392.703 35.8333 392.27 36.9333 392.27 38.4C392.27 38.8667 392.403 39.5667 392.67 40.5L396.77 54.1ZM457.502 70.8C461.702 70.8 465.602 69.4667 469.202 66.8C469.735 67.3333 470.202 68.1333 470.602 69.2C471.002 70.2667 471.202 71.2 471.202 72C471.202 73.2 470.402 74.6 468.802 76.2C467.202 77.7333 464.969 79.0667 462.102 80.2C459.302 81.3333 456.135 81.9 452.602 81.9C447.669 81.9 443.335 80.8333 439.602 78.7C435.935 76.5667 433.102 73.4667 431.102 69.4C429.102 65.3333 428.102 60.5333 428.102 55C428.102 49.3333 429.169 44.3667 431.302 40.1C433.502 35.8333 436.502 32.5667 440.302 30.3C444.102 27.9667 448.402 26.8 453.202 26.8C459.269 26.8 464.102 28.5667 467.702 32.1C471.302 35.6333 473.102 40.5333 473.102 46.8C473.102 49.7333 472.635 52.0667 471.702 53.8C470.769 55.4667 469.102 56.3 466.702 56.3H445.102C445.502 65.9667 449.635 70.8 457.502 70.8ZM452.602 33.7C450.535 33.7 448.802 34.8667 447.402 37.2C446.002 39.4667 445.235 43.3 445.102 48.7H455.202C456.269 48.7 456.969 48.3333 457.302 47.6C457.635 46.8667 457.802 45.7333 457.802 44.2C457.802 40.2667 457.335 37.5333 456.402 36C455.469 34.4667 454.202 33.7 452.602 33.7ZM512.497 26.7C515.497 26.7 517.697 27.4667 519.097 29C520.497 30.5333 521.197 32.6333 521.197 35.3C521.197 38.1667 520.431 40.5 518.897 42.3C517.431 44.1 515.431 45 512.897 45C510.697 45 508.897 44.3667 507.497 43.1C506.164 41.8333 505.497 40.3333 505.497 38.6C505.497 37.5333 505.597 36.7 505.797 36.1C503.397 36.7 501.364 37.7333 499.697 39.2V69.2C499.697 70.8667 499.931 72.1333 500.397 73C500.864 73.8667 501.764 74.5333 503.097 75C504.497 75.4 506.564 75.6 509.297 75.6C509.297 76.8 509.164 77.8333 508.897 78.7C508.631 79.5 508.131 80.2667 507.397 81H480.697C479.164 79.4667 478.397 77.6667 478.397 75.6C480.331 75.6 481.697 75.2 482.497 74.4C483.364 73.5333 483.797 72.1 483.797 70.1V41.2C483.797 39.4 483.297 38.1333 482.297 37.4C481.364 36.6667 479.664 36.3 477.197 36.3V31.8C479.397 30.5333 482.297 29.4333 485.897 28.5C489.564 27.5 492.397 27 494.397 27C495.997 27 497.131 27.5667 497.797 28.7C498.464 29.8333 498.797 32.1 498.797 35.5C499.997 33.2333 501.897 31.2 504.497 29.4C507.097 27.6 509.764 26.7 512.497 26.7ZM574.717 27.9C576.05 29.3 576.717 31.3333 576.717 34C575.117 34 573.85 34.4 572.917 35.2C571.983 36 571.217 37.3333 570.617 39.2L559.217 74.7C556.217 84.4333 553.017 91.4333 549.617 95.7C546.217 99.9667 541.95 102.1 536.817 102.1C532.817 102.1 529.75 101.267 527.617 99.6C525.483 97.9333 524.417 95.8333 524.417 93.3C524.417 91.7 524.783 90.2667 525.517 89C526.317 87.7333 527.317 86.8333 528.517 86.3C530.317 88.4333 532.983 89.5 536.517 89.5C538.65 89.5 540.75 88.4667 542.817 86.4C544.883 84.3333 546.583 81.3 547.917 77.3H539.717L524.317 39.9C524.183 39.5 523.85 38.6667 523.317 37.4C522.783 36.1333 522.117 35.2667 521.317 34.8C520.517 34.2667 519.483 34 518.217 34C518.217 31.4 518.917 29.3667 520.317 27.9H543.917C545.517 29.6333 546.317 31.6667 546.317 34C543.25 34 541.717 35.5333 541.717 38.6C541.717 39.8 541.883 40.9 542.217 41.9L551.517 69L558.117 40.6C558.317 39.6667 558.417 38.8667 558.417 38.2C558.417 35.4 556.783 34 553.517 34C553.517 31.2667 554.15 29.2333 555.417 27.9H574.717Z" fill="white"/>
</svg>
