<svg width="209" height="37" viewBox="0 0 209 37" fill="none" xmlns="http://www.w3.org/2000/svg">
<path d="M11.196 29.288C10.284 29.288 9.216 29.252 7.992 29.18C5.184 29.06 3.096 29 1.728 29C1.2 28.352 0.936 27.596 0.936 26.732C1.752 26.732 2.328 26.6 2.664 26.336C3 26.048 3.168 25.568 3.168 24.896V7.976C3.168 7.304 3 6.836 2.664 6.572C2.328 6.284 1.752 6.14 0.936 6.14C0.936 5.276 1.2 4.52 1.728 3.872C3.072 3.872 5.148 3.836 7.956 3.764C9.204 3.716 10.056 3.692 10.512 3.692C14.28 3.692 16.944 4.28 18.504 5.456C20.064 6.632 20.844 8.06 20.844 9.74C20.844 11.132 20.484 12.308 19.764 13.268C19.068 14.204 17.904 15.008 16.272 15.68C18.408 16.112 19.932 16.796 20.844 17.732C21.756 18.668 22.212 20.072 22.212 21.944C22.212 26.84 18.54 29.288 11.196 29.288ZM10.188 14.816C13.404 14.816 15.012 13.4 15.012 10.568C15.012 9.224 14.64 8.18 13.896 7.436C13.176 6.692 12.072 6.32 10.584 6.32C9.912 6.32 9.42 6.368 9.108 6.464V14.744C9.54 14.792 9.9 14.816 10.188 14.816ZM10.62 26.66C13.98 26.66 15.66 25.208 15.66 22.304C15.66 20.648 15.24 19.424 14.4 18.632C13.56 17.816 12.192 17.408 10.296 17.408L9.108 17.444V26.552C9.756 26.624 10.26 26.66 10.62 26.66ZM42.2933 5.168C39.5093 8.696 37.6373 12.044 36.6773 15.212C35.7413 18.38 35.2733 21.548 35.2733 24.716V26.732C35.2733 27.5 34.9853 28.136 34.4093 28.64C33.8333 29.12 32.7173 29.36 31.0613 29.36C29.8613 29.36 28.8653 29.18 28.0732 28.82C28.3133 25.196 29.1653 21.728 30.6293 18.416C32.1173 15.104 34.4333 11.528 37.5773 7.688C35.5613 8.288 33.4853 8.588 31.3493 8.588C29.9573 8.588 28.9493 8.792 28.3253 9.2C27.7253 9.608 27.2933 10.352 27.0293 11.432H25.0133C24.5813 11.024 24.2213 10.508 23.9333 9.884C23.6453 9.236 23.5013 8.48 23.5013 7.616C23.5013 6.344 23.8733 5.348 24.6173 4.628C25.3613 3.884 26.5133 3.512 28.0732 3.512C28.5293 3.512 29.1893 3.584 30.0533 3.728C30.9413 3.848 31.5053 3.92 31.7453 3.944C34.5053 4.352 36.4853 4.556 37.6853 4.556C38.4773 4.556 39.0533 4.496 39.4133 4.376C39.7733 4.232 40.3013 3.908 40.9973 3.404L42.2933 5.168ZM80.4729 29.396C79.9209 29.396 79.2489 29.36 78.4569 29.288C75.8889 29.096 73.6329 29 71.6889 29C71.1609 28.328 70.8969 27.56 70.8969 26.696C71.6889 26.696 72.2529 26.564 72.5889 26.3C72.9489 26.012 73.1289 25.532 73.1289 24.86V7.94C73.1289 7.292 72.9489 6.836 72.5889 6.572C72.2529 6.284 71.6889 6.14 70.8969 6.14C70.8969 5.228 71.1609 4.472 71.6889 3.872C73.5129 3.872 75.1569 3.824 76.6209 3.728C78.0849 3.632 78.9489 3.572 79.2129 3.548C80.0289 3.476 80.6169 3.44 80.9769 3.44C83.6409 3.44 85.8729 3.992 87.6729 5.096C89.4969 6.2 90.8409 7.7 91.7049 9.596C92.5929 11.468 93.0369 13.568 93.0369 15.896C93.0369 18.464 92.5809 20.768 91.6689 22.808C90.7809 24.824 89.4009 26.432 87.5289 27.632C85.6569 28.808 83.3049 29.396 80.4729 29.396ZM80.1849 26.408C82.2489 26.408 83.8329 25.628 84.9369 24.068C86.0649 22.484 86.6289 19.94 86.6289 16.436C86.6289 13.052 86.0289 10.52 84.8289 8.84C83.6529 7.16 82.0089 6.32 79.8969 6.32C79.4889 6.32 79.2009 6.344 79.0329 6.392V26.336C79.2729 26.384 79.6569 26.408 80.1849 26.408ZM105.528 25.328C107.04 25.328 108.444 24.848 109.74 23.888C109.932 24.08 110.1 24.368 110.244 24.752C110.388 25.136 110.46 25.472 110.46 25.76C110.46 26.192 110.172 26.696 109.596 27.272C109.02 27.824 108.216 28.304 107.184 28.712C106.176 29.12 105.036 29.324 103.764 29.324C101.988 29.324 100.428 28.94 99.0838 28.172C97.7638 27.404 96.7438 26.288 96.0238 24.824C95.3038 23.36 94.9438 21.632 94.9438 19.64C94.9438 17.6 95.3278 15.812 96.0958 14.276C96.8878 12.74 97.9678 11.564 99.3358 10.748C100.704 9.908 102.252 9.488 103.98 9.488C106.164 9.488 107.904 10.124 109.2 11.396C110.496 12.668 111.144 14.432 111.144 16.688C111.144 17.744 110.976 18.584 110.64 19.208C110.304 19.808 109.704 20.108 108.84 20.108H101.064C101.208 23.588 102.696 25.328 105.528 25.328ZM103.764 11.972C103.02 11.972 102.396 12.392 101.892 13.232C101.388 14.048 101.112 15.428 101.064 17.372H104.7C105.084 17.372 105.336 17.24 105.456 16.976C105.576 16.712 105.636 16.304 105.636 15.752C105.636 14.336 105.468 13.352 105.132 12.8C104.796 12.248 104.34 11.972 103.764 11.972ZM115.102 5.96C115.102 5.36 114.922 4.916 114.562 4.628C114.226 4.316 113.59 4.16 112.654 4.16V2.72C113.518 2.24 114.61 1.832 115.93 1.496C117.25 1.16 118.318 0.991998 119.134 0.991998C119.71 0.991998 120.118 1.112 120.358 1.352C120.598 1.592 120.718 2.012 120.718 2.612V25.076C120.718 25.82 120.862 26.336 121.15 26.624C121.462 26.912 121.978 27.056 122.698 27.056C122.698 27.728 122.41 28.376 121.834 29H113.95C113.398 28.4 113.122 27.752 113.122 27.056C113.818 27.056 114.322 26.912 114.634 26.624C114.946 26.312 115.102 25.796 115.102 25.076V5.96ZM132.79 3.548C132.79 4.58 132.466 5.408 131.818 6.032C131.194 6.632 130.354 6.932 129.298 6.932C128.266 6.932 127.438 6.632 126.814 6.032C126.214 5.408 125.914 4.58 125.914 3.548C125.914 2.54 126.226 1.724 126.85 1.1C127.498 0.475998 128.338 0.163998 129.37 0.163998C130.402 0.163998 131.23 0.475998 131.854 1.1C132.478 1.724 132.79 2.54 132.79 3.548ZM132.106 25.112C132.106 25.808 132.274 26.312 132.61 26.624C132.97 26.912 133.51 27.056 134.23 27.056C134.23 27.8 133.954 28.448 133.402 29H125.266C124.714 28.448 124.438 27.8 124.438 27.056C125.158 27.056 125.674 26.912 125.986 26.624C126.322 26.312 126.49 25.796 126.49 25.076V14.636C126.49 13.964 126.322 13.484 125.986 13.196C125.674 12.908 125.05 12.764 124.114 12.764V11.18C124.69 10.82 125.662 10.448 127.03 10.064C128.422 9.656 129.598 9.452 130.558 9.452C131.11 9.452 131.506 9.584 131.746 9.848C131.986 10.088 132.106 10.508 132.106 11.108V25.112ZM143.465 19.316L145.121 25.616L146.777 19.316L148.181 14.42C148.277 14.036 148.325 13.748 148.325 13.556C148.325 13.052 148.157 12.68 147.821 12.44C147.509 12.176 147.053 12.044 146.453 12.044C146.453 11.06 146.681 10.34 147.137 9.884H154.121C154.601 10.364 154.841 11.084 154.841 12.044C154.241 12.044 153.785 12.188 153.473 12.476C153.161 12.764 152.897 13.244 152.681 13.916L148.937 25.4C148.529 26.816 148.073 27.812 147.569 28.388C147.065 28.964 146.297 29.252 145.265 29.252H141.521L135.833 13.916C135.569 13.22 135.305 12.74 135.041 12.476C134.777 12.188 134.345 12.044 133.745 12.044C133.745 11.108 133.997 10.388 134.501 9.884H142.709C142.973 10.148 143.177 10.484 143.321 10.892C143.465 11.276 143.537 11.66 143.537 12.044C143.033 12.044 142.625 12.188 142.313 12.476C142.001 12.74 141.845 13.136 141.845 13.664C141.845 13.832 141.893 14.084 141.989 14.42L143.465 19.316ZM165.329 25.328C166.841 25.328 168.245 24.848 169.541 23.888C169.733 24.08 169.901 24.368 170.045 24.752C170.189 25.136 170.261 25.472 170.261 25.76C170.261 26.192 169.973 26.696 169.397 27.272C168.821 27.824 168.017 28.304 166.985 28.712C165.977 29.12 164.837 29.324 163.565 29.324C161.789 29.324 160.229 28.94 158.885 28.172C157.565 27.404 156.545 26.288 155.825 24.824C155.105 23.36 154.745 21.632 154.745 19.64C154.745 17.6 155.129 15.812 155.897 14.276C156.689 12.74 157.769 11.564 159.137 10.748C160.505 9.908 162.053 9.488 163.781 9.488C165.965 9.488 167.705 10.124 169.001 11.396C170.297 12.668 170.945 14.432 170.945 16.688C170.945 17.744 170.777 18.584 170.441 19.208C170.105 19.808 169.505 20.108 168.641 20.108H160.865C161.009 23.588 162.497 25.328 165.329 25.328ZM163.565 11.972C162.821 11.972 162.197 12.392 161.693 13.232C161.189 14.048 160.913 15.428 160.865 17.372H164.501C164.885 17.372 165.137 17.24 165.257 16.976C165.377 16.712 165.437 16.304 165.437 15.752C165.437 14.336 165.269 13.352 164.933 12.8C164.597 12.248 164.141 11.972 163.565 11.972ZM185.127 9.452C186.207 9.452 186.999 9.728 187.503 10.28C188.007 10.832 188.259 11.588 188.259 12.548C188.259 13.58 187.983 14.42 187.431 15.068C186.903 15.716 186.183 16.04 185.271 16.04C184.479 16.04 183.831 15.812 183.327 15.356C182.847 14.9 182.607 14.36 182.607 13.736C182.607 13.352 182.643 13.052 182.715 12.836C181.851 13.052 181.119 13.424 180.519 13.952V24.752C180.519 25.352 180.603 25.808 180.771 26.12C180.939 26.432 181.263 26.672 181.743 26.84C182.247 26.984 182.991 27.056 183.975 27.056C183.975 27.488 183.927 27.86 183.831 28.172C183.735 28.46 183.555 28.736 183.291 29H173.679C173.127 28.448 172.851 27.8 172.851 27.056C173.547 27.056 174.039 26.912 174.327 26.624C174.639 26.312 174.795 25.796 174.795 25.076V14.672C174.795 14.024 174.615 13.568 174.255 13.304C173.919 13.04 173.307 12.908 172.419 12.908V11.288C173.211 10.832 174.255 10.436 175.551 10.1C176.871 9.74 177.891 9.56 178.611 9.56C179.187 9.56 179.595 9.764 179.835 10.172C180.075 10.58 180.195 11.396 180.195 12.62C180.627 11.804 181.311 11.072 182.247 10.424C183.183 9.776 184.143 9.452 185.127 9.452ZM207.526 9.884C208.006 10.388 208.246 11.12 208.246 12.08C207.67 12.08 207.214 12.224 206.878 12.512C206.542 12.8 206.266 13.28 206.05 13.952L201.946 26.732C200.866 30.236 199.714 32.756 198.49 34.292C197.266 35.828 195.73 36.596 193.882 36.596C192.442 36.596 191.338 36.296 190.57 35.696C189.802 35.096 189.418 34.34 189.418 33.428C189.418 32.852 189.55 32.336 189.814 31.88C190.102 31.424 190.462 31.1 190.894 30.908C191.542 31.676 192.502 32.06 193.774 32.06C194.542 32.06 195.298 31.688 196.042 30.944C196.786 30.2 197.398 29.108 197.878 27.668H194.926L189.382 14.204C189.334 14.06 189.214 13.76 189.022 13.304C188.83 12.848 188.59 12.536 188.302 12.368C188.014 12.176 187.642 12.08 187.186 12.08C187.186 11.144 187.438 10.412 187.942 9.884H196.438C197.014 10.508 197.302 11.24 197.302 12.08C196.198 12.08 195.646 12.632 195.646 13.736C195.646 14.168 195.706 14.564 195.826 14.924L199.174 24.68L201.55 14.456C201.622 14.12 201.658 13.832 201.658 13.592C201.658 12.584 201.07 12.08 199.894 12.08C199.894 11.096 200.122 10.364 200.578 9.884H207.526Z" fill="#1B1B1B"/>
<path d="M61.7844 17.012C61.7844 18.692 61.2684 20.048 60.2364 21.08C59.2044 22.088 57.8364 22.592 56.1324 22.592C54.4044 22.592 53.0244 22.088 51.9924 21.08C50.9844 20.048 50.4804 18.692 50.4804 17.012C50.4804 15.332 50.9844 13.988 51.9924 12.98C53.0244 11.972 54.4044 11.468 56.1324 11.468C57.8364 11.468 59.2044 11.972 60.2364 12.98C61.2684 13.988 61.7844 15.332 61.7844 17.012Z" fill="#FB9400"/>
</svg>
